<?xml version="1.0" standalone="no"?><!DOCTYPE svg PUBLIC "-//W3C//DTD SVG 1.1//EN" "http://www.w3.org/Graphics/SVG/1.1/DTD/svg11.dtd"><svg t="1609934255944" class="icon" viewBox="0 0 1024 1024" version="1.1" xmlns="http://www.w3.org/2000/svg" p-id="715" xmlns:xlink="http://www.w3.org/1999/xlink" width="16" height="16"><defs><style type="text/css"></style></defs><path d="M512 463.3c-217.2 0-448-70-448-199.6S294.8 64 512 64s448 70 448 199.6-230.8 199.7-448 199.7z m0-332.3c-235.9 0-380.8 77.3-380.8 132.6S276.1 396.3 512 396.3 892.8 319 892.8 263.6 747.9 131 512 131z" fill="#ff4a9b" p-id="716"></path><path d="M512 615.1c-215.8 0-448-50.7-448-162.1 0-18.5 15.1-33.5 33.6-33.5s33.6 15 33.6 33.5c0 28.4 129.6 95.1 380.8 95.1s380.8-66.7 380.8-95.1c0-18.5 15-33.5 33.6-33.5 18.5 0 33.6 15 33.6 33.5 0 111.4-232.2 162.1-448 162.1z" fill="#ff4a9b" p-id="717"></path><path d="M512 774.7c-215.8 0-448-50.7-448-162.1 0-18.5 15.1-33.5 33.6-33.5s33.6 15 33.6 33.5c0 28.4 129.6 95.1 380.8 95.1s380.8-66.7 380.8-95.1c0-18.5 15-33.5 33.6-33.5 18.5 0 33.6 15 33.6 33.5 0 111.4-232.2 162.1-448 162.1z" fill="#ff4a9b" p-id="718"></path><path d="M512 960c-215.8 0-448-50.7-448-162.1v-30.5c0-18.5 15.1-33.5 33.6-33.5s33.6 15 33.6 33.5v30.5c0 28.4 129.6 95.1 380.8 95.1s380.8-66.7 380.8-95.1v-30.5c0-18.5 15-33.5 33.6-33.5 18.5 0 33.6 15 33.6 33.5v30.5C960 909.3 727.8 960 512 960z" fill="#ff4a9b" p-id="719"></path></svg>