<?xml version="1.0" standalone="no"?><!DOCTYPE svg PUBLIC "-//W3C//DTD SVG 1.1//EN" "http://www.w3.org/Graphics/SVG/1.1/DTD/svg11.dtd"><svg t="1609936059100" class="icon" viewBox="0 0 1024 1024" version="1.1" xmlns="http://www.w3.org/2000/svg" p-id="1704" xmlns:xlink="http://www.w3.org/1999/xlink" width="16" height="16"><defs><style type="text/css"></style></defs><path d="M512.2 276.94c95.73 0 173.34 77.61 173.34 173.34v205.7a75.861 75.861 0 0 0 14.45 44.68l27.35 38.52H297.06l27.35-38.52a75.883 75.883 0 0 0 14.45-44.68v-205.7c-0.01-95.74 77.6-173.34 173.34-173.34m0-57.78c-127.65 0-231.12 103.48-231.12 231.12v205.7c-0.03 4.01-1.31 7.92-3.66 11.17L228.3 736.1c-12.34 17.33-8.29 41.38 9.04 53.72a38.526 38.526 0 0 0 22.36 7.14h505c21.27 0.01 38.53-17.23 38.54-38.51 0-8.01-2.49-15.83-7.14-22.36l-49.11-68.95a19.323 19.323 0 0 1-3.66-11.17v-205.7c-0.01-127.64-103.49-231.11-231.13-231.11z m19.26-19.26h-38.52c-15.96 0-28.89-12.93-28.89-28.89s12.93-28.89 28.89-28.89h38.52c15.96 0 28.89 12.93 28.89 28.89s-12.94 28.89-28.89 28.89z m48.15 693.36H464.05c-15.96-0.01-28.88-12.95-28.88-28.9 0.01-15.95 12.93-28.87 28.88-28.88h115.56c15.96 0.01 28.88 12.95 28.88 28.9-0.01 15.95-12.94 28.88-28.88 28.88z" fill="#ff4a9b" p-id="1705"></path></svg>