<?xml version="1.0" standalone="no"?><!DOCTYPE svg PUBLIC "-//W3C//DTD SVG 1.1//EN" "http://www.w3.org/Graphics/SVG/1.1/DTD/svg11.dtd"><svg t="1609936035142" class="icon" viewBox="0 0 1024 1024" version="1.1" xmlns="http://www.w3.org/2000/svg" p-id="1317" xmlns:xlink="http://www.w3.org/1999/xlink" width="16" height="16"><defs><style type="text/css"></style></defs><path d="M512 0C229.003636 0 0 229.003636 0 512s229.003636 512 512 512 512-229.003636 512-512S794.996364 0 512 0z m274.618182 287.650909l-93.090909 471.04c-4.654545 21.410909-17.687273 27.927273-22.341818 28.858182-3.723636 0.930909-8.378182 2.792727-14.894546 2.792727-8.378182 0-16.756364-1.861818-25.134545-6.516363l-2.792728-1.861819-0.930909-0.930909-99.607272-67.025454-47.476364 47.476363c-9.309091 9.309091-26.065455 16.756364-43.752727 8.378182-13.963636-6.516364-23.272727-21.410909-23.272728-38.167273V627.432727c0-5.585455 0-16.756364 10.24-26.996363l235.52-248.552728 32.581819 14.894546-243.898182 257.861818v106.123636c0 3.723636 0.930909 7.447273 4.654545 9.309091 1.861818 0.930909 4.654545-1.861818 4.654546-1.861818l67.956363-67.956364 122.88 83.781819c3.723636 1.861818 8.378182 2.792727 11.170909 1.861818 0.930909 0 1.861818-3.723636 2.792728-5.585455v-0.930909L753.105455 279.272727c1.861818-6.516364 0.930909-11.170909 0-12.101818-0.930909-0.930909-3.723636-0.930909-8.378182 0.930909L273.687273 505.483636c-1.861818 0.930909-3.723636 3.723636-3.723637 5.585455 0 1.861818 0.930909 3.723636 1.861819 4.654545l115.432727 73.541819-18.618182 28.858181-117.294545-74.472727a42.821818 42.821818 0 0 1-15.825455-33.512727c1.861818-14.894545 8.378182-26.065455 22.341818-33.512727l473.832727-237.381819c15.825455-7.447273 32.581818-6.516364 44.683637 4.654546 11.170909 9.309091 15.825455 25.134545 10.24 43.752727z" fill="#ff4a9b" p-id="1318"></path></svg>