<?xml version="1.0" standalone="no"?><!DOCTYPE svg PUBLIC "-//W3C//DTD SVG 1.1//EN" "http://www.w3.org/Graphics/SVG/1.1/DTD/svg11.dtd"><svg t="1609934274759" class="icon" viewBox="0 0 1024 1024" version="1.1" xmlns="http://www.w3.org/2000/svg" p-id="1124" xmlns:xlink="http://www.w3.org/1999/xlink" width="16" height="16"><defs><style type="text/css"></style></defs><path d="M307.2 921.6c-10.24 0-17.066667-3.413333-23.893333-10.24-13.653333-13.653333-13.653333-34.133333 0-47.786667l85.333333-85.333333c13.653333-13.653333 34.133333-20.48 54.613333-20.48l218.453334 20.48c10.24 0 20.48-3.413333 27.306666-10.24l146.773334-146.773333c6.826667-6.826667 10.24-17.066667 10.24-27.306667l-13.653334-160.426667-116.053333 116.053334c-13.653333 13.653333-30.72 20.48-47.786667 20.48-17.066667 0-34.133333-6.826667-47.786666-20.48l-95.573334-95.573334c-27.306667-27.306667-27.306667-68.266667 0-95.573333l122.88-122.88-146.773333-30.72c-10.24-3.413333-23.893333 0-30.72 10.24l-167.253333 167.253333c-6.826667 6.826667-10.24 17.066667-10.24 27.306667l20.48 218.453333c0 20.48-6.826667 37.546667-20.48 54.613334l-85.333334 85.333333c-13.653333 13.653333-34.133333 13.653333-47.786666 0-13.653333-13.653333-13.653333-34.133333 0-47.786667l85.333333-85.333333-20.48-218.453333c-3.413333-30.72 6.826667-61.44 30.72-81.92l167.253333-167.253334c23.893333-23.893333 58.026667-34.133333 92.16-27.306666l174.08 34.133333c17.066667 3.413333 34.133333 17.066667 37.546667 34.133333 6.826667 17.066667 0 37.546667-13.653333 51.2L546.133333 406.186667l95.573334 95.573333 143.36-143.36c13.653333-13.653333 34.133333-20.48 54.613333-10.24 20.48 6.826667 30.72 23.893333 34.133333 44.373333l17.066667 197.973334c3.413333 30.72-6.826667 61.44-30.72 81.92L716.8 815.786667c-20.48 20.48-51.2 30.72-81.92 30.72l-218.453333-20.48-85.333334 85.333333c-6.826667 6.826667-13.653333 10.24-23.893333 10.24z" fill="#ff4a9b" p-id="1125"></path></svg>