<?xml version="1.0" standalone="no"?><!DOCTYPE svg PUBLIC "-//W3C//DTD SVG 1.1//EN" "http://www.w3.org/Graphics/SVG/1.1/DTD/svg11.dtd"><svg t="1609934266360" class="icon" viewBox="0 0 1024 1024" version="1.1" xmlns="http://www.w3.org/2000/svg" p-id="911" xmlns:xlink="http://www.w3.org/1999/xlink" width="16" height="16"><defs><style type="text/css"></style></defs><path d="M512 100.571429C285.257143 100.571429 100.571429 285.257143 100.571429 512S285.257143 923.428571 512 923.428571 923.428571 738.742857 923.428571 512 738.742857 100.571429 512 100.571429z m246.857143 479.085714c-10.971429 34.742857-49.371429 53.028571-84.114286 42.057143-34.742857-12.8-53.028571-49.371429-40.228571-84.114286 0-1.828571 1.828571-3.657143 1.828571-5.485714l-43.885714-47.542857c-10.971429 3.657143-25.6 3.657143-38.4 0-1.828571 0-1.828571 0-3.657143-1.828572l-34.742857 76.8c3.657143 3.657143 7.314286 9.142857 10.971428 14.628572 9.142857 16.457143 10.971429 34.742857 5.485715 51.2l-1.828572 1.828571c-10.971429 32.914286-47.542857 53.028571-80.457143 42.057143-18.285714-5.485714-31.085714-16.457143-40.228571-31.085714s-10.971429-34.742857-5.485714-51.2l5.485714-10.971429-53.028571-60.342857c-14.628571 7.314286-32.914286 9.142857-49.371429 3.657143-34.742857-12.8-53.028571-49.371429-40.228571-84.114286 10.971429-34.742857 49.371429-53.028571 84.114285-42.057143 34.742857 12.8 53.028571 49.371429 40.228572 84.114286-1.828571 3.657143-3.657143 9.142857-5.485715 12.8l51.2 56.685714c12.8-7.314286 29.257143-10.971429 45.714286-7.314286l36.571429-82.285714c-1.828571-1.828571-3.657143-5.485714-5.485715-7.314286-9.142857-16.457143-10.971429-34.742857-5.485714-51.2 12.8-36.571429 47.542857-54.857143 82.285714-45.714285 16.457143 5.485714 31.085714 16.457143 42.057143 31.085714 9.142857 16.457143 10.971429 34.742857 5.485715 51.2l-1.828572 3.657143c-1.828571 7.314286-7.314286 14.628571-10.971428 20.114286l36.571428 40.228571c16.457143-9.142857 36.571429-12.8 56.685714-7.314286 34.742857 14.628571 53.028571 53.028571 40.228572 87.771429z" fill="#ff4a9b" p-id="912"></path></svg>